<?xml version="1.0" encoding="UTF-8" standalone="no"?>
<!-- Created with Inkscape (http://www.inkscape.org/) -->

<svg
   xmlns:dc="http://purl.org/dc/elements/1.1/"
   xmlns:cc="http://creativecommons.org/ns#"
   xmlns:rdf="http://www.w3.org/1999/02/22-rdf-syntax-ns#"
   xmlns:svg="http://www.w3.org/2000/svg"
   xmlns="http://www.w3.org/2000/svg"
   xmlns:sodipodi="http://sodipodi.sourceforge.net/DTD/sodipodi-0.dtd"
   xmlns:inkscape="http://www.inkscape.org/namespaces/inkscape"
   width="210mm"
   height="297mm"
   viewBox="0 0 210 297"
   version="1.1"
   id="svg8"
   inkscape:version="0.92.2 (5c3e80d, 2017-08-06)"
   sodipodi:docname="xkcd_what.svg">
  <defs
     id="defs2">
    <clipPath
       clipPathUnits="userSpaceOnUse"
       id="clipPath836">
      <rect
         style="opacity:1;fill:#cccccc;fill-opacity:1;fill-rule:evenodd;stroke:#b90000;stroke-width:0.26499999;stroke-linecap:round;stroke-miterlimit:4;stroke-dasharray:none;stroke-opacity:1;paint-order:stroke fill markers"
         id="rect838"
         width="37.230652"
         height="29.671131"
         x="51.499252"
         y="115.66592" />
    </clipPath>
    <clipPath
       clipPathUnits="userSpaceOnUse"
       id="clipPath844">
      <rect
         style="opacity:1;fill:#cccccc;fill-opacity:1;fill-rule:evenodd;stroke:#b90000;stroke-width:0.26499999;stroke-linecap:round;stroke-miterlimit:4;stroke-dasharray:none;stroke-opacity:1;paint-order:stroke fill markers"
         id="rect846"
         width="49.979401"
         height="74.300934"
         x="77.107262"
         y="80.244415" />
    </clipPath>
  </defs>
  <sodipodi:namedview
     id="base"
     pagecolor="#ffffff"
     bordercolor="#666666"
     borderopacity="1.0"
     inkscape:pageopacity="0.0"
     inkscape:pageshadow="2"
     inkscape:zoom="0.98994949"
     inkscape:cx="561.42819"
     inkscape:cy="776.51205"
     inkscape:document-units="mm"
     inkscape:current-layer="layer1"
     showgrid="false"
     inkscape:window-width="1920"
     inkscape:window-height="1015"
     inkscape:window-x="1920"
     inkscape:window-y="0"
     inkscape:window-maximized="1" />
  <metadata
     id="metadata5">
    <rdf:RDF>
      <cc:Work
         rdf:about="">
        <dc:format>image/svg+xml</dc:format>
        <dc:type
           rdf:resource="http://purl.org/dc/dcmitype/StillImage" />
        <dc:title></dc:title>
      </cc:Work>
    </rdf:RDF>
  </metadata>
  <g
     inkscape:label="Layer 1"
     inkscape:groupmode="layer"
     id="layer1">
    <rect
       style="opacity:1;fill:#ffffff;fill-opacity:1;fill-rule:evenodd;stroke:#030000;stroke-width:2;stroke-linecap:round;stroke-miterlimit:4;stroke-dasharray:none;stroke-opacity:1;paint-order:stroke fill markers"
       id="rect853"
       width="129.35844"
       height="96.217026"
       x="44.928143"
       y="38.571857"
       inkscape:export-xdpi="90"
       inkscape:export-ydpi="90" />
    <g
       id="g851"
       inkscape:export-xdpi="90"
       inkscape:export-ydpi="90">
      <text
         id="text817"
         y="55.231449"
         x="56.917767"
         style="font-style:normal;font-weight:normal;font-size:10.58333302px;line-height:6.61458302px;font-family:sans-serif;letter-spacing:0px;word-spacing:0px;fill:#000000;fill-opacity:1;stroke:none;stroke-width:0.26458332"
         xml:space="preserve"><tspan
           dx="0 0 0 0 0 0 0 0 0 0 0 0 0 0 -0.66000003"
           style="font-style:normal;font-variant:normal;font-weight:normal;font-stretch:normal;font-family:'xkcd Script';-inkscape-font-specification:'xkcd Script';stroke-width:0.26458332"
           y="55.231449"
           x="56.917767"
           id="tspan815"
           sodipodi:role="line">What do you want to do?</tspan></text>
      <path
         transform="translate(5.8799296,-24.054257)"
         clip-path="url(#clipPath844)"
         inkscape:connector-curvature="0"
         id="path840"
         d="M 52.948377,99.424664 V 38.865968 h 54.166383 54.16639 v 54.839264 c 0,36.110928 -0.22979,54.839268 -0.67287,54.839268 -0.44301,0 -0.67288,-18.50405 -0.67288,-54.166394 V 40.211717 H 107.11476 54.294125 v 59.221026 59.221027 l 52.820715,-0.1763 c 41.90203,-0.13985 52.82069,-0.003 52.82063,0.6648 -5e-5,0.66582 -11.14739,0.84109 -53.49358,0.84109 H 52.948377 Z M 160.60828,154.89709 c 0,-3.2195 0.24696,-4.93364 0.67287,-4.67041 0.37008,0.22873 0.67288,2.51755 0.67288,5.08627 0,2.66502 -0.28892,4.67041 -0.67288,4.67041 -0.38923,0 -0.67287,-2.14401 -0.67287,-5.08627 z m -69.658357,-3.47678 c 0.258693,-1.37895 1.248544,-4.93677 2.19967,-7.90628 3.069065,-9.5819 4.568544,-18.2536 4.307771,-24.91245 l -0.237159,-6.05586 -1.781464,3.7008 c -0.983354,2.04282 -2.232451,3.70081 -2.788113,3.70081 -0.553656,0 -1.80127,-1.47128 -2.772473,-3.26953 -0.971204,-1.79824 -2.637766,-3.96635 -3.703472,-4.81802 -2.215914,-1.77088 -1.912604,-2.61468 0.703815,-1.958 1.262919,0.31698 2.281596,1.41775 3.455106,3.73356 0.915287,1.80623 1.886152,3.27579 2.157478,3.26568 0.271327,-0.0101 1.450832,-1.95254 2.621122,-4.31651 l 2.127802,-4.29812 -1.791364,-0.74393 c -3.071929,-1.27571 -5.158854,-5.11209 -5.134627,-9.438935 0.0392,-7.001874 4.064886,-10.717617 10.497235,-9.689043 7.40293,1.183777 10.57942,7.937188 7.02888,14.943848 -1.92648,3.80172 -2.69391,4.50372 -5.6037,5.1259 -1.20277,0.25718 -2.18685,0.62332 -2.18685,0.81364 0,0.60504 4.33621,7.62153 4.71012,7.62153 0.19716,0 1.35457,-1.66537 2.57202,-3.70081 1.21745,-2.03545 2.4746,-3.70081 2.79367,-3.70081 0.31906,0 1.05907,-0.18379 1.64446,-0.40843 0.70365,-0.27001 1.06435,-0.0348 1.06435,0.694 0,0.60633 -0.47501,1.28469 -1.05558,1.50748 -0.58056,0.22278 -2.27307,2.33283 -3.76112,4.689 -1.48806,2.35617 -2.95243,4.28394 -3.25418,4.28394 -0.30174,0 -1.33796,-1.34692 -2.30272,-2.99316 -2.808738,-4.79274 -3.220934,-4.54475 -2.898901,1.74411 0.227192,4.43677 0.863891,7.18391 3.018601,13.02435 6.96313,18.87387 7.61592,21.19555 5.95961,21.19555 -0.65987,0 -1.29495,-1.03973 -1.74675,-2.85972 -0.70187,-2.8273 -6.44636,-18.78273 -7.432851,-20.64488 -0.327395,-0.618 -0.80351,0.46737 -1.328249,3.02793 -0.938817,4.58115 -5.097832,19.46912 -5.719998,20.47581 -1.011745,1.63703 -1.811307,0.56082 -1.362139,-1.83345 z m 12.101227,-45.01345 c 2.80999,-1.07829 4.63091,-8.554851 3.07818,-12.638816 -0.69574,-1.829954 -4.41326,-3.763621 -7.235631,-3.763621 -6.806817,0 -9.255569,9.450634 -3.785486,14.609587 2.331803,2.19917 5.198097,2.84614 7.942937,1.79285 z m 9.59421,-3.35808 c -0.23536,-0.23536 0.84632,-1.07137 2.40374,-1.8578 4.08502,-2.062782 5.37914,-4.89976 4.88642,-10.712113 -0.38834,-4.580923 0.38126,-7.648429 1.71248,-6.825693 0.43792,0.270648 0.41248,0.727628 -0.073,1.312661 -0.48481,0.584166 -0.58297,2.328177 -0.28117,4.995749 0.74645,6.597746 -1.82935,11.534576 -6.82607,13.083016 -0.76693,0.23766 -1.58699,0.23954 -1.82235,0.004 z M 88.276335,75.705842 c 0.258844,-2.313006 0.781755,-4.508259 1.162026,-4.87834 0.472403,-0.459745 0.560659,0.65918 0.278633,3.532591 l -0.412767,4.205465 h 2.344743 c 1.28961,0 2.344744,0.302793 2.344744,0.672874 0,0.370081 -1.392301,0.672875 -3.094002,0.672875 H 87.80571 Z m 9.081751,0.168218 c 0,-3.351178 -0.194386,-4.037246 -1.143886,-4.037246 -0.840202,0 -0.945008,-0.198879 -0.394774,-0.749113 0.412013,-0.412013 1.986539,-0.631107 3.498947,-0.486875 1.918617,0.182969 2.749837,0.0026 2.749837,-0.596635 0,-0.472381 0.30279,-0.858875 0.67287,-0.858875 1.66806,0 0.45646,2.03595 -1.51397,2.544029 -2.110361,0.544162 -2.193895,0.697789 -2.388636,4.392921 -0.268566,5.095962 -1.480388,4.925527 -1.480388,-0.208206 z M 123.306,77.544801 c -0.24418,-1.301579 -0.28097,-2.630236 -0.0817,-2.952572 0.19921,-0.322336 -0.54309,-0.718935 -1.64955,-0.881329 -1.96929,-0.28903 -2.01176,-0.233799 -2.01176,2.616135 0,1.601268 -0.30279,2.911397 -0.67287,2.911397 -0.37957,0 -0.67288,-1.906477 -0.67288,-4.373683 0,-4.538941 0.69752,-5.449043 2.44959,-3.196154 0.87216,1.121458 0.94938,1.121458 1.62159,0 0.3882,-0.647641 1.01519,-1.17753 1.39332,-1.17753 0.97609,0 2.60938,1.75723 2.61334,2.811654 0.002,0.489035 0.77726,-0.01922 1.72317,-1.129468 1.137,-1.334538 1.83942,-1.732167 2.07275,-1.173337 0.1941,0.464906 0.63145,0.673142 0.97188,0.462747 0.34043,-0.210396 4.3043,-0.517681 8.80859,-0.682855 7.7864,-0.28553 8.26942,-0.22549 9.81028,1.219438 l 1.62066,1.519756 1.30541,-1.609289 c 1.84581,-2.275482 2.4937,-1.146107 0.71931,1.253881 -0.80639,1.090705 -1.46617,2.752346 -1.46617,3.692533 0,0.940188 -0.30279,1.709433 -0.67287,1.709433 -0.37008,0 -0.67288,-0.699111 -0.67288,-1.55358 0,-2.263861 -1.44049,-3.957513 -2.69149,-3.164518 -0.83195,0.527357 -0.86151,0.878286 -0.16822,1.996939 1.47963,2.387478 0.89359,3.129804 -0.82024,1.038973 l -1.65464,-2.018623 -0.0242,1.906477 c -0.0408,3.211354 -1.68566,1.67024 -1.91146,-1.790857 -0.18461,-2.829844 -0.36926,-3.143555 -1.85039,-3.143555 -0.90493,0 -1.64532,0.302793 -1.64532,0.672874 0,0.370081 0.45419,0.672875 1.00931,0.672875 0.55513,0 1.00932,0.302793 1.00932,0.672874 0,0.370081 -0.45419,0.672874 -1.00932,0.672874 -0.61754,0 -1.00931,0.628493 -1.00931,1.619192 0,1.287916 0.27534,1.547191 1.34575,1.267271 0.7421,-0.194064 1.34575,-0.02064 1.34575,0.386612 0,0.847941 -3.20873,1.816977 -3.85999,1.165717 -0.23812,-0.238121 -0.35155,-1.966649 -0.25206,-3.841173 0.15864,-2.988805 0.0295,-3.37945 -1.04968,-3.174399 -0.94898,0.180317 -1.27751,0.963833 -1.43566,3.423925 -0.20325,3.161488 -1.46795,4.58703 -1.48702,1.676134 -0.01,-1.483079 -0.0272,-1.479648 -0.86096,0.168219 -0.93016,1.838565 -3.84028,2.351954 -4.36744,0.770482 -0.21991,-0.659748 0.0909,-0.786391 1.12477,-0.45826 0.99206,0.314866 1.55589,0.121938 1.84492,-0.631283 0.5135,-1.338143 0.43123,-1.407721 -2.27327,-1.922526 -2.07045,-0.394109 -2.18685,-0.309713 -2.18685,1.585535 0,1.10099 -0.30279,2.001801 -0.67287,2.001801 -0.37008,0 -0.67288,-0.580823 -0.67288,-1.290717 0,-0.709893 -0.19353,-1.795058 -0.43007,-2.411477 -0.70576,-1.839186 -1.52117,0.231654 -1.10384,2.803355 0.49258,3.035406 -0.8811,2.920046 -1.45177,-0.121918 z m 11.73305,-3.710482 c 0,-1.000741 -1.82195,-1.552296 -3.19615,-0.967564 -1.01564,0.432159 -0.94625,0.571604 0.50465,1.01423 2.40754,0.734465 2.6915,0.729542 2.6915,-0.04666 z m 12.4046,-1.254124 c 0.20476,-0.331302 -0.0505,-0.764629 -0.56738,-0.962949 -0.98663,-0.378607 -1.7441,0.05769 -1.7441,1.004588 0,0.751439 1.84184,0.71826 2.31148,-0.04164 z m -86.645072,6.209654 c -0.945605,-0.945604 -0.372111,-1.325742 1.57004,-1.040695 1.699628,0.249453 2.018623,0.07154 2.018623,-1.125849 0,-1.13155 -0.412448,-1.422119 -2.018623,-1.422119 -1.6916,0 -2.018623,-0.266086 -2.018623,-1.642475 0,-2.027025 0.9937,-2.713642 4.037246,-2.789617 1.295283,-0.03233 3.339139,-0.283573 4.541902,-0.558309 2.360472,-0.539182 3.153551,0.543397 0.841093,1.148119 -1.143415,0.29901 -1.345749,0.917812 -1.345749,4.115725 0,2.070092 -0.302793,3.763803 -0.672874,3.763803 -0.370081,0 -0.672874,-1.670546 -0.672874,-3.712324 v -3.712324 l -2.470489,0.189581 c -2.975934,0.228369 -3.778745,1.664802 -1.101994,1.971747 1.521726,0.174498 1.933602,0.596118 2.112396,2.162374 0.12615,1.105083 -0.16454,2.19072 -0.672874,2.512976 -1.075397,0.681741 -3.522596,0.763992 -4.1472,0.139387 z m 41.269632,-0.177492 c 0,-0.344341 0.67819,-0.722833 1.50709,-0.841093 1.62726,-0.232162 2.56593,-2.570078 1.03188,-2.570078 -0.50824,0 -1.28329,-0.359218 -1.72234,-0.798262 -1.06359,-1.063595 0.85061,-3.247485 2.82024,-3.217585 1.32661,0.02014 1.33913,0.07493 0.21238,0.929733 -1.03494,0.785156 -1.05775,0.961884 -0.16822,1.303231 1.18556,0.454941 1.34534,2.626172 0.33254,4.518616 -0.70192,1.311544 -4.01357,1.868857 -4.01357,0.675438 z m 8.07339,0.289638 c -0.27424,-1.364379 0.14224,-5.330181 0.7191,-6.847433 1.26564,-3.328895 3.72384,-1.017178 4.43491,4.170646 0.26638,1.943467 0.15826,3.013224 -0.30453,3.013224 -0.39464,0 -0.81429,-0.681285 -0.93255,-1.513967 -0.30397,-2.140262 -2.70555,-2.018349 -3.31377,0.168218 -0.25735,0.925203 -0.52878,1.379393 -0.60316,1.009312 z m 3.35517,-4.878339 c -0.0132,-0.644192 -1.31135,-2.675677 -1.32514,-2.073656 -0.006,0.247292 -0.1941,0.928578 -0.41873,1.513967 -0.26802,0.698433 -0.0367,1.064344 0.67287,1.064344 0.59472,0 1.07666,-0.227095 1.071,-0.504655 z m -43.950825,4.093319 c -0.71456,-0.714559 -0.518851,-5.607287 0.224291,-5.607287 0.370081,0 0.672875,1.059777 0.672875,2.355061 0,1.564414 0.314679,2.35506 0.937321,2.35506 1.174078,0 1.754176,-1.464555 1.754176,-4.428716 0,-1.265015 0.302794,-2.300028 0.672875,-2.300028 0.861572,0 0.872321,4.097926 0.01665,6.348503 -0.632201,1.662816 -3.143073,2.412526 -4.278191,1.277407 z m 5.607286,-3.594098 v -4.04268 l 3.017087,0.11412 c 2.33129,0.08818 3.110894,0.409681 3.429781,1.414405 0.386098,1.216486 0.538574,1.179687 2.365909,-0.571011 2.145866,-2.055871 2.728874,-1.050075 0.671427,1.158335 -0.704983,0.75671 -1.475687,2.409413 -1.712676,3.672675 -0.236989,1.26326 -0.725731,2.296837 -1.086093,2.296837 -0.360363,0 -0.470718,-0.735051 -0.245235,-1.633445 0.225482,-0.898395 0.08906,-2.185267 -0.303157,-2.859716 -0.655104,-1.1265 -0.71479,-1.103092 -0.733586,0.287696 -0.02547,1.88434 -2.26504,4.205465 -4.057708,4.205465 -1.196422,0 -1.345749,-0.448583 -1.345749,-4.042681 z m 3.377974,1.325767 c 0.977652,-1.826759 0.212576,-4.01183 -1.404694,-4.01183 -1.02521,0 -1.300405,0.474652 -1.300405,2.242914 0,3.349234 1.377323,4.249891 2.705099,1.768916 z m 14.789635,-1.65677 c 0,-2.035445 0.302793,-3.700809 0.672874,-3.700809 0.370081,0 0.672875,1.665364 0.672875,3.700809 0,2.035445 -0.302794,3.700809 -0.672875,3.700809 -0.370081,0 -0.672874,-1.665364 -0.672874,-3.700809 z M 65.864955,65.971353 c -0.867553,-0.164257 -1.830569,-1.030878 -2.186841,-1.967949 -0.839668,-2.208492 -0.816129,-6.296953 0.03625,-6.296953 0.370081,0 0.672874,1.041907 0.672874,2.31535 0,1.273442 0.302794,2.502486 0.672875,2.731208 0.37008,0.228723 0.672874,0.0952 0.672874,-0.296726 0,-0.391922 0.302793,-0.712585 0.672874,-0.712585 0.370081,0 0.672875,0.45419 0.672875,1.009311 0,0.555122 0.285383,1.009312 0.634185,1.009312 0.348802,0 0.727294,-1.286872 0.841093,-2.859716 0.113799,-1.572844 0.509701,-2.870446 0.879782,-2.88356 0.370081,-0.01311 1.307773,-0.377434 2.08376,-0.8096 1.556582,-0.866897 2.962798,-0.04899 2.962798,1.723283 0,0.76478 0.198309,0.792545 0.986793,0.138161 0.805618,-0.668604 1.295873,-0.467536 2.670234,1.09514 l 1.683441,1.914106 0.02223,-2.35506 0.02223,-2.355061 5.045591,-0.101152 c 4.980586,-0.09985 6.479961,0.545594 3.531625,1.520274 l -1.513968,0.500497 1.682186,0.413523 c 2.07469,0.510012 2.546882,2.816283 1.045697,5.10738 -1.208331,1.844146 -3.571068,2.186267 -4.177875,0.604951 -0.532609,-1.387955 0.35842,-2.202125 1.098858,-1.004072 0.48422,0.783485 0.767724,0.794914 1.6456,0.06634 1.619987,-1.344477 1.267195,-2.620902 -0.789814,-2.857587 -1.279049,-0.147171 -1.821548,-0.576502 -1.75695,-1.390443 0.0514,-0.647641 -0.175695,-1.17753 -0.504656,-1.17753 -0.32896,0 -0.59811,1.362571 -0.59811,3.027935 0,1.665364 -0.302794,3.027935 -0.672875,3.027935 -0.37008,0 -0.672874,-1.362571 -0.672874,-3.027935 0,-2.242914 -0.261673,-3.027935 -1.009312,-3.027935 -0.76259,0 -1.009311,0.822402 -1.009311,3.364372 0,3.835305 -0.876724,4.298623 -2.554574,1.350004 -1.454329,-2.555807 -2.155547,-2.564061 -2.155547,-0.02537 0,2.283398 -1.637023,2.225905 -2.23968,-0.07866 -0.501714,-1.918556 -3.403876,-1.443788 -3.69477,0.604432 -0.11826,0.832682 -0.471987,1.513967 -0.78606,1.513967 -0.314073,0 -0.974299,0.108881 -1.467169,0.241958 -0.492869,0.133078 -1.593724,0.10988 -2.446346,-0.05155 z m 7.556159,-6.4702 c -0.236767,-0.617005 -0.665569,-1.121827 -0.952892,-1.121827 -0.871545,0 -1.265162,2.606344 -0.439713,2.911563 1.148683,0.424737 1.88115,-0.516607 1.392605,-1.789736 z m 19.899726,5.041811 c 0,-2.386701 2.315766,-7.509387 3.394702,-7.509387 0.792696,0 1.615997,2.02133 2.261045,5.551214 0.482572,2.64077 -0.507339,3.599091 -1.155895,1.119007 -0.46381,-1.773612 -2.70452,-1.477139 -3.04347,0.402687 -0.436342,2.41996 -1.456382,2.725668 -1.456382,0.436479 z m 4.037246,-4.105304 c 0,-1.128022 -1.193372,-1.40734 -1.59056,-0.372283 -0.234364,0.61074 0.0021,1.005446 0.602367,1.005446 0.543506,0 0.988193,-0.284923 0.988193,-0.633163 z m 5.158704,4.894701 c -0.82308,-0.823075 -0.4618,-1.631434 0.6397,-1.431318 1.52225,0.276559 2.55799,-1.61543 2.03188,-3.711636 -0.30067,-1.197942 -0.76352,-1.639351 -1.44484,-1.377904 -0.55134,0.211572 -1.00245,0.06321 -1.00245,-0.329697 0,-0.392906 1.04353,-0.910141 2.31895,-1.149412 2.80986,-0.527133 4.79275,0.06556 2.52133,0.753639 -0.989,0.299598 -1.41617,0.824181 -1.17753,1.446067 0.20598,0.536753 0.3745,1.119431 0.3745,1.294841 0,0.175409 0.70927,-0.505648 1.57615,-1.51346 2.16257,-2.514141 3.80684,-1.822349 3.80684,1.601649 0,1.417923 -0.36335,2.941393 -0.80745,3.385491 -1.17764,1.177647 -3.6898,0.986974 -4.19059,-0.318068 -0.38121,-0.993426 -0.55208,-0.953942 -1.45589,0.336438 -1.01791,1.453272 -2.33301,1.870961 -3.1906,1.01337 z m 8.65672,-2.983522 c 0.66702,-2.101589 -0.86076,-3.313354 -2.08542,-1.654065 -0.53021,0.718375 -0.96401,1.702454 -0.96401,2.186842 0,1.450315 2.56209,1.002683 3.04943,-0.532777 z m 1.7968,-0.77336 c 0.19909,-4.179639 0.21272,-4.205465 2.21895,-4.205465 1.73721,0 2.01862,0.249626 2.01862,1.790611 0,0.984837 0.2271,2.019381 0.50466,2.298988 1.68203,1.69443 -0.45803,4.321331 -3.52047,4.321331 -1.31721,0 -1.40731,-0.310136 -1.22176,-4.205465 z m 3.5647,1.513968 c 0,-0.544985 -0.52989,-1.092929 -1.17753,-1.217653 -0.82619,-0.15911 -1.17753,0.204203 -1.17753,1.217653 0,1.013449 0.35134,1.376762 1.17753,1.217653 0.64764,-0.124724 1.17753,-0.672669 1.17753,-1.217653 z M 115.86213,59.0522 c 0.22872,-0.370081 -0.0562,-0.672874 -0.63316,-0.672874 -0.57696,0 -1.04902,0.302793 -1.04902,0.672874 0,0.370081 0.28492,0.672875 0.63316,0.672875 0.34824,0 0.8203,-0.302794 1.04902,-0.672875 z m 5.67372,4.926316 c -0.84527,-2.223216 -0.81259,-6.466087 0.0457,-5.935627 0.37009,0.228722 0.67288,1.154972 0.67288,2.058334 0,1.193892 0.36754,1.642475 1.34575,1.642475 0.74016,0 1.34575,0.302793 1.34575,0.672874 0,0.370081 0.30279,0.672875 0.67287,0.672875 0.37008,0 0.67287,-1.193304 0.67287,-2.651787 0,-1.458483 0.3028,-2.838923 0.67288,-3.067646 0.37258,-0.23027 0.68287,0.277515 0.69526,1.137819 l 0.0224,1.553679 1.263,-1.513968 c 1.58636,-1.901582 2.37889,-1.905544 3.70063,-0.0185 0.861,1.229257 1.04746,1.289147 1.04746,0.336437 -2e-5,-0.637469 0.32133,-1.159033 0.71408,-1.159033 0.46218,0 0.55813,1.040152 0.27197,2.948379 -0.25158,1.677677 -0.16311,3.120827 0.20528,3.348505 1.11587,0.68964 2.73597,-1.808065 2.99327,-4.614698 0.23882,-2.605054 0.27146,-2.63747 1.01635,-1.009311 0.56126,1.226797 0.78115,1.363414 0.81225,0.504656 0.0235,-0.647642 0.34545,-1.177531 0.71553,-1.177531 0.83682,0 0.83941,0.437517 0.0195,3.296395 -0.78231,2.727772 -0.46957,3.424059 1.32693,2.954265 0.96127,-0.25138 1.34507,-0.917966 1.34507,-2.336127 0,-4.424413 2.36065,-5.763466 5.62869,-3.192821 2.36567,1.860838 2.23819,2.834056 -0.68711,5.245333 -1.90968,1.57412 -3.07633,2.010898 -5.21478,1.952347 -1.5151,-0.04148 -3.14354,-0.371993 -3.61876,-0.734464 -0.58044,-0.442723 -1.43084,-0.355689 -2.59092,0.265165 -1.53071,0.819209 -1.8275,0.786588 -2.61265,-0.287157 -0.81456,-1.113978 -1.01468,-1.126888 -2.48942,-0.160601 -1.42245,0.932024 -1.7646,0.938019 -3.02807,0.05306 -1.07033,-0.749688 -1.49255,-0.793315 -1.69849,-0.175499 -0.15073,0.45221 -1.25618,0.871595 -2.45655,0.931964 -1.74936,0.08798 -2.30693,-0.217587 -2.80963,-1.539789 z m 10.00426,-1.023644 c 1.14896,-1.148964 0.99893,-3.198554 -0.26977,-3.685402 -1.25886,-0.483068 -2.26223,0.829672 -2.27686,2.978884 -0.0112,1.643493 1.25764,1.995505 2.54663,0.706518 z m 16.22051,-0.623988 1.53647,-1.431436 -1.35355,-1.353554 c -1.92082,-1.920823 -3.48425,-1.095081 -3.48425,1.840248 0,2.767176 1.02908,3.061668 3.30133,0.944742 z M 67.547721,51.650582 c -1.326206,-3.255419 -1.887149,-6.604565 -1.179444,-7.041951 0.325164,-0.200963 0.79957,0.867906 1.054237,2.375263 0.354193,2.096447 0.707406,2.646875 1.502686,2.341697 0.57181,-0.219424 1.57518,0.08569 2.229709,0.67803 1.11929,1.012944 1.236227,0.854566 1.966583,-2.663541 0.968197,-4.663781 1.8741,-5.323231 2.44116,-1.777035 0.540128,3.377775 2.460035,3.765239 3.524636,0.711321 0.730311,-2.094971 2.316649,-2.22307 3.074452,-0.248267 0.299407,0.78024 0.742202,0.583822 2.013407,-0.893119 0.896274,-1.041331 1.844422,-1.679022 2.106996,-1.417091 0.262574,0.26193 -0.317254,1.420637 -1.288506,2.574905 -1.05532,1.254177 -1.78262,2.957866 -1.807431,4.233884 -0.03788,1.948359 -0.140933,1.840794 -1.17753,-1.229157 l -1.136012,-3.364372 -0.204903,3.576435 c -0.137707,2.403561 -0.468706,3.489606 -1.009312,3.311668 -0.442425,-0.145623 -0.901166,-0.922336 -1.019426,-1.726031 -0.278745,-1.894355 -2.812917,-2.034198 -2.812917,-0.155225 0,2.332462 -1.342332,2.248203 -1.414625,-0.0888 l -0.06888,-2.226553 -0.525998,2.220987 c -0.702018,2.964219 -1.110781,3.255045 -2.63556,1.875139 -1.224435,-1.108099 -1.323592,-1.105086 -1.981424,0.0602 -0.615714,1.090672 -0.798852,0.965573 -1.651901,-1.128393 z m 28.296398,0.806692 c -0.73409,-0.14494 -1.17753,-0.8474 -1.17753,-1.865342 0,-2.386096 -3.045535,-2.321925 -3.647591,0.07686 -0.828791,3.302166 -1.54159,0.976855 -0.761844,-2.485306 1.362939,-6.051603 4.525419,-6.057574 5.547016,-0.01047 l 0.530662,3.141132 0.343408,-3.70081 0.343409,-3.700809 1.322607,2.186842 c 1.5754,2.604818 2.378204,2.788578 2.378204,0.544367 0,-2.394073 1.11534,-2.699075 2.44563,-0.668786 l 1.15901,1.768868 1.24169,-2.420302 c 1.18661,-2.312935 2.55529,-3.224617 2.55529,-1.702083 0,0.404491 0.56994,0.537326 1.30477,0.304101 0.91853,-0.291533 1.53748,0.02072 2.09094,1.054873 0.63616,1.188661 0.91056,1.291136 1.43796,0.536993 0.49745,-0.711317 0.73187,-0.734974 0.99006,-0.09991 0.18605,0.45765 0.86377,1.481048 1.50604,2.274217 1.15294,1.423818 1.16415,1.411118 0.88263,-1.000308 -0.33271,-2.849853 0.97301,-3.402502 1.39876,-0.592032 l 0.28032,1.850405 0.10081,-1.850405 c 0.0942,-1.729553 0.29858,-1.850405 3.12876,-1.850405 1.66536,0 3.02793,0.302794 3.02793,0.672875 0,0.370081 -1.05978,0.672874 -2.35506,0.672874 -1.6448,0 -2.35506,0.304396 -2.35506,1.009312 0,0.555121 0.45419,1.009311 1.00931,1.009311 0.55512,0 1.00931,0.302794 1.00931,0.672875 0,0.370081 -0.45419,0.672874 -1.00931,0.672874 -0.55512,0 -1.00931,0.45419 -1.00931,1.009312 0,0.628016 0.63549,1.009311 1.68219,1.009311 2.02021,0 2.22636,1.082346 0.32131,1.686985 -2.13125,0.676434 -5.30146,-0.306082 -6.16252,-1.909896 -0.77173,-1.43742 -0.79638,-1.429042 -1.64624,0.559349 -0.9497,2.221971 -1.07842,1.962814 -1.00266,-2.018624 l 0.0512,-2.691497 -1.01569,3.196153 c -1.45572,4.580796 -4.20135,4.276007 -5.67395,-0.629855 -0.55035,-1.833442 -0.57018,-1.813488 -0.62619,0.629855 -0.0621,2.710142 -1.40358,3.592754 -1.40358,0.923483 0,-0.879888 -0.45419,-1.976741 -1.00931,-2.43745 -0.86941,-0.721543 -1.00931,-0.453153 -1.00931,1.936233 0,3.547896 -0.92279,3.519957 -2.834783,-0.08583 l -1.516382,-2.859716 -0.347698,2.706435 c -0.272715,2.122775 -0.60164,2.656296 -1.525228,2.473941 z m 14.671221,-3.118093 c 0.69117,-3.684271 -1.07603,-5.217612 -2.47492,-2.147397 -0.52821,1.1593 -0.51776,1.989285 0.0381,3.027935 1.10547,2.065585 1.94075,1.763761 2.43682,-0.880538 z M 93.865619,46.435805 c -0.273142,-1.418313 -1.467326,-1.328882 -1.771647,0.132677 -0.126932,0.609613 0.243982,1.044853 0.890431,1.044853 0.693032,0 1.023058,-0.441 0.881216,-1.17753 z m 35.131031,5.567439 c -1.01904,-1.227871 -1.69892,-7.081406 -0.8225,-7.081406 0.39581,0 0.81546,0.832682 0.93256,1.850404 0.16764,1.456955 0.56187,1.84898 1.85406,1.843702 1.29227,-0.0052 1.76448,-0.482658 2.22131,-2.245606 0.41899,-1.61692 0.86627,-2.129113 1.61003,-1.843702 0.56644,0.217361 1.15651,0.395202 1.31129,0.395202 0.15477,0 0.2814,0.756983 0.2814,1.682186 0,2.588953 2.10768,1.929826 3.2882,-1.028307 l 0.66375,-1.663191 0.0427,1.631259 0.0427,1.631259 1.67513,-1.573708 c 1.62633,-1.527852 1.71456,-1.538035 3.02794,-0.349442 1.61868,1.464892 1.73386,3.536586 0.30965,5.569926 -1.3253,1.892105 -6.35849,2.016957 -6.35849,0.157726 0,-0.617813 -0.19121,-1.314505 -0.42491,-1.548205 -0.77794,-0.777938 -2.93946,0.900583 -2.93946,2.282626 0,0.815893 -0.29558,1.17911 -0.73735,0.906081 -0.45756,-0.282789 -0.59248,-1.638284 -0.35557,-3.572301 0.38721,-3.160954 -0.32362,-1.962918 -1.195,2.01407 -0.29158,1.330794 -0.8007,1.766295 -2.06489,1.766295 -0.92284,0 -1.98595,-0.371191 -2.36247,-0.824868 z m 15.32807,-1.832986 c 1.09065,-1.090657 1.01851,-2.889854 -0.15494,-3.863727 -0.76852,-0.637819 -1.10738,-0.527784 -1.68218,0.546249 -1.60482,2.998631 -0.26446,5.419058 1.83712,3.317478 z"
         style="fill:#000000;stroke-width:0.67287439" />
    </g>
  </g>
</svg>
